<svg width="184" height="134" viewBox="0 0 184 134" fill="none" xmlns="http://www.w3.org/2000/svg" class="jss225"><g clip-path="url(#clip0_331_1667)"><path d="M31.7937 92.8956C31.7937 94.1064 32.2806 95.2811 33.073 96.0746C33.8593 96.867 34.9583 97.4838 36.1618 97.4838H70.4864C72.552 97.4838 74.2305 99.0156 74.2305 101.081C74.2305 102.118 73.8121 102.934 73.1316 103.607C72.451 104.288 71.5156 104.698 70.4852 104.698H66.1171C63.7016 104.698 61.749 106.712 61.749 109.126C61.749 110.337 62.2359 111.51 63.0282 112.303C63.8146 113.095 64.9135 113.714 66.1171 113.714H124.986C127.402 113.714 129.355 111.611 129.355 109.196C129.355 107.985 128.868 106.777 128.075 105.984C127.283 105.192 126.197 104.697 124.986 104.697H121.866C119.801 104.697 118.122 103.077 118.122 101.011C118.122 99.975 118.541 99.1262 119.221 98.4517C119.896 97.7711 120.831 97.4826 121.868 97.4826H137.469C139.885 97.4826 141.837 95.3809 141.837 92.9653C141.837 91.7546 141.35 90.5474 140.558 89.7551C139.766 88.9627 138.68 88.465 137.469 88.465H92.5363C90.4706 88.465 88.7921 86.8466 88.7921 84.781C88.7921 83.7445 89.2106 82.8969 89.8911 82.2224C90.5656 81.5419 91.501 81.2509 92.5375 81.2509H104.395L108.346 72.2333H55.5088C53.0933 72.2333 51.1406 74.2496 51.1406 76.6651C51.1406 77.8759 51.6276 79.053 52.4199 79.8453C53.2063 80.6377 54.3052 81.2509 55.5088 81.2509H57.3808C59.4465 81.2509 61.1249 82.7839 61.1249 84.8495C61.1249 85.8859 60.7065 86.7035 60.026 87.3768C59.3455 88.0574 58.41 88.465 57.3796 88.465H36.1606C33.7451 88.465 31.7925 90.4801 31.7925 92.8956H31.7937ZM103.993 104.697C101.791 104.697 100.005 103.158 100.005 100.961C100.005 99.856 100.448 99.1382 101.173 98.4144C101.897 97.6966 102.896 97.4826 103.993 97.4826H108.125C110.327 97.4826 112.113 98.8929 112.113 101.096C112.113 103.298 110.327 104.697 108.125 104.697H103.993Z" fill="#B4DAFF"></path><path d="M110.622 53.8254C111.642 42.7085 111.624 31.1167 109.221 21.1841L117.62 23.3507L178.23 38.3067L179.008 38.4895C180.89 38.9319 182.272 40.5335 182.437 42.4584L182.484 43.0079C183.316 52.7337 181.571 67.228 179.155 76.6255L106.717 71.8967C108.484 65.909 110.071 59.8191 110.621 53.8266L110.622 53.8254Z" fill="#F4F4F4"></path><path d="M106.718 71.9147L179.156 76.6351C178.386 79.6265 178.377 77.8651 177.287 80.7688C176.636 82.5037 174.963 83.6568 173.11 83.6568H103.209C104.294 79.8093 105.546 75.886 106.718 71.9159V71.9147Z" fill="#D7D7D7"></path><path d="M127.419 25.2684C127.764 24.9234 128.348 24.9234 128.694 25.2684L128.995 25.569C129.339 25.9129 129.339 26.4997 128.995 26.8447C128.65 27.1898 128.066 27.1898 127.719 26.8447C127.62 26.7449 127.519 26.6439 127.419 26.5441C127.075 26.2003 127.075 25.6135 127.419 25.2684Z" fill="white"></path><path d="M116.832 29.2542C116.832 43.8327 131.008 55.6458 148.496 55.6458C162.149 55.6458 173.781 48.4497 178.23 38.356L117.62 23.3748C117.103 25.2685 116.832 27.2343 116.832 29.2542Z" fill="#1485FD"></path><path d="M121.91 24.2621C122.445 23.2317 124.002 24.1431 123.467 25.1723C120.634 30.625 124.109 35.177 128.49 38.1697C127 35.6351 126.344 32.675 126.662 29.603C126.781 28.4607 128.585 28.4475 128.466 29.603C128.103 33.1318 130.887 34.5975 133.818 34.9979C132.618 33.6248 131.954 31.9055 131.917 29.9841C131.913 29.9817 131.909 29.9793 131.906 29.9769C131.033 29.3769 131.722 28.0135 132.584 28.3056C132.935 28.2022 133.349 28.3116 133.616 28.6904C133.654 28.7445 133.693 28.7986 133.731 28.8539C133.92 29.122 133.877 29.4611 133.731 29.7352C133.736 32.0726 134.818 34.0084 136.908 35.2215C137.713 35.6892 137.319 36.8507 136.452 36.9024C133.929 37.0503 131.039 36.514 129.049 35.0688C129.787 37.2294 131.138 39.1532 133.049 40.715C133.911 41.4184 132.81 42.5005 131.956 42.1314C125.083 39.1532 117.686 32.3912 121.908 24.2633L121.91 24.2621Z" fill="white"></path><path d="M160.225 37.0275C162.842 36.8616 167.213 37.0239 169.217 39.2578C170.399 38.8202 171.57 38.3501 172.723 37.8246C173.772 37.3461 174.689 38.9007 173.633 39.3817C172.466 39.9143 171.282 40.3952 170.086 40.8461C170.129 40.9904 170.177 41.1287 170.204 41.2826C170.513 43.0092 169.447 44.4183 167.935 45.5449C168.443 46.0884 168.862 46.7268 169.149 47.4554C169.573 48.5363 167.83 49.0041 167.41 47.9352C167.192 47.3821 166.844 46.9048 166.412 46.5224C164.878 47.3797 163.217 48.0145 162.108 48.4498C161.027 48.873 160.558 47.1296 161.628 46.7112C162.218 46.4803 163.219 46.0787 164.267 45.5605C164.154 45.5461 164.041 45.5281 163.927 45.5245C162.769 45.486 162.764 43.6825 163.927 43.7209C164.807 43.751 165.633 43.971 166.369 44.3474C167.576 43.5057 168.467 42.5222 168.299 41.4906C167.002 41.9306 165.693 42.3346 164.361 42.6773C163.237 42.9671 162.757 41.2273 163.881 40.9387C165.011 40.6477 166.125 40.3111 167.228 39.9516C165.437 38.6146 162.141 38.712 160.226 38.8334C159.067 38.9067 159.072 37.1032 160.226 37.0299L160.225 37.0275Z" fill="white"></path><path d="M121.169 38.9104C121.288 38.4764 121.822 38.1037 122.279 38.2804C122.987 38.5545 123.402 39.205 123.209 39.9709C123.09 40.4434 122.562 40.7272 122.1 40.6009C121.726 40.4987 121.483 40.1693 121.449 39.805C121.204 39.5861 121.072 39.2675 121.169 38.9104Z" fill="white"></path><path d="M172.543 41.2357C172.637 41.2357 172.714 41.2826 172.777 41.3559C172.806 41.3234 172.839 41.2874 172.854 41.2705C172.872 41.2285 172.941 41.0998 172.952 41.0746C173.146 40.6285 173.8 40.5263 174.185 40.7511C174.646 41.0204 174.705 41.5375 174.509 41.9847C174.237 42.6063 173.638 43.068 172.989 43.2364C172.631 43.3302 172.219 43.1811 172.007 42.8805C171.38 42.4416 171.558 41.2357 172.542 41.2357H172.543Z" fill="white"></path><path d="M127.624 42.6028C129.935 45.5666 133.026 47.536 136.7 48.3452C137.832 48.5953 137.354 50.3339 136.22 50.0838C132.282 49.2169 128.829 47.0587 126.349 43.8773C125.643 42.9719 126.911 41.6878 127.624 42.6016V42.6028Z" fill="white"></path><path d="M125.345 26.6609C125.515 25.8914 126.099 25.3275 126.826 25.0738C127.272 24.9187 127.832 25.2506 127.936 25.7039C128.05 26.2064 127.783 26.6465 127.306 26.8136C127.425 26.7728 127.325 26.816 127.26 26.8449C127.253 26.8545 127.212 26.8882 127.179 26.9158C127.173 26.9279 127.148 26.9639 127.125 26.9988C127.125 27.0144 127.09 27.1094 127.084 27.1407C126.979 27.6168 126.428 27.8945 125.976 27.7707C125.487 27.636 125.24 27.1383 125.346 26.6609H125.345Z" fill="white"></path><path d="M173.11 84.858H103.209C102.833 84.858 102.477 84.6813 102.25 84.3807C102.023 84.0801 101.949 83.6905 102.052 83.3286C102.704 81.0213 103.431 78.6347 104.134 76.3274C106.398 68.8908 108.739 61.2018 109.424 53.7352C110.598 40.9387 110.136 30.0827 108.053 21.4679C107.953 21.0579 108.077 20.625 108.377 20.328C108.678 20.0323 109.113 19.9144 109.522 20.0202L117.914 22.1857L178.519 37.1417L179.286 37.3232C181.677 37.8859 183.426 39.9107 183.636 42.3622L183.683 42.9165C184.236 49.3828 184.066 55.9223 183.18 62.3549C182.295 68.7814 180.691 75.1178 178.413 81.1872C177.588 83.3839 175.457 84.8592 173.11 84.8592V84.858ZM104.806 82.4533H173.11C174.462 82.4533 175.688 81.6045 176.162 80.3408C180.588 68.5458 182.36 55.6746 181.286 43.1197L181.239 42.5654C181.119 41.1539 180.112 39.9876 178.733 39.663L177.952 39.479L117.332 24.5182L117.32 24.5146L110.825 22.8385C112.596 31.3728 112.932 41.8272 111.819 53.9529C111.113 61.6647 108.734 69.474 106.435 77.0259C105.891 78.8138 105.332 80.6498 104.806 82.4521V82.4533Z" fill="#336498"></path><path d="M134.394 63.6811C135.553 55.9921 135.483 47.857 135.069 40.3544L133.772 26.2809L162.33 33.3423L162.889 37.2655C163.542 41.8441 163.958 46.4551 164.046 51.0793C164.137 55.8598 163.956 60.7173 163.36 65.4642C163.076 67.7426 162.121 73.0979 161.52 75.303L131.861 73.3997C132.811 70.6307 133.955 66.5812 134.391 63.6811H134.394Z" fill="#B4DAFF"></path><path d="M126.773 84.858L130.493 76.6904C131.166 75.2031 131.335 74.9146 131.864 73.3719L161.522 75.2356C159.561 79.6446 158.96 81.2509 156.56 84.858H126.774H126.773Z" fill="#DFEAFD"></path><path d="M156.33 86.0953C156.235 86.0953 156.138 86.0844 156.043 86.0604H126.773C126.364 86.0604 125.983 85.8524 125.762 85.5085C125.541 85.1647 125.509 84.7318 125.679 84.3603L129.434 76.1098C131.199 72.207 132.375 68.4665 133.026 64.6755C134.677 55.0759 133.897 44.7514 133.143 34.7671C132.923 31.8526 132.715 29.0992 132.564 26.3446C132.543 25.9635 132.703 25.5956 132.998 25.3527C133.291 25.1098 133.683 25.0196 134.053 25.111L162.604 32.17C163.082 32.2878 163.439 32.6846 163.506 33.1716L164.051 37.09C164.719 41.7816 165.104 46.4755 165.19 51.0372C165.284 55.9536 165.032 60.846 164.439 65.5772C163.577 72.4631 161.195 79.171 157.357 85.5157C157.136 85.8825 156.742 86.0965 156.328 86.0965L156.33 86.0953ZM128.642 83.6557H155.668C159.115 77.7846 161.262 71.6058 162.055 65.2778C162.633 60.6608 162.88 55.8851 162.788 51.0829C162.703 46.6198 162.328 42.0244 161.671 37.4255L161.237 34.309L135.061 27.8379C135.198 30.0346 135.366 32.259 135.542 34.5855C136.307 44.7153 137.098 55.1901 135.396 65.0818C134.71 69.0772 133.475 73.0089 131.623 77.1029L128.64 83.6557H128.642Z" fill="#336498"></path><path d="M111.476 53.0184C113.409 35.3695 111.85 20.72 107.995 20.2977C104.139 19.8754 99.4467 33.8404 97.5139 51.4892C95.581 69.1381 97.1397 83.7876 100.995 84.2099C104.851 84.6321 109.543 70.6672 111.476 53.0184Z" fill="#D7D7D7"></path><path d="M101.182 85.4208C101.077 85.4208 100.97 85.4148 100.863 85.4027C98.269 85.119 96.6411 81.5312 95.886 74.4349C95.2199 68.1719 95.3714 59.9755 96.3152 51.3571C97.2591 42.7386 98.8834 34.7034 100.889 28.7325C103.163 21.9681 105.526 18.8167 108.121 19.1017C110.715 19.3854 112.343 22.9733 113.098 30.0695C113.764 36.3325 113.612 44.5289 112.668 53.1474C111.725 61.7658 110.1 69.8011 108.093 75.7719C105.915 82.2574 103.65 85.4208 101.181 85.4208H101.182ZM107.825 21.4896C107.246 21.4896 105.388 22.8951 103.17 29.4984C101.217 35.3105 99.6325 43.1667 98.7067 51.6192C97.7809 60.0717 97.6294 68.0841 98.2775 74.1812C99.0301 81.2534 100.588 82.9548 101.125 83.0137C101.658 83.0702 103.55 81.7488 105.815 75.0072C107.768 69.1951 109.352 61.339 110.278 52.8864C111.204 44.4339 111.355 36.4215 110.707 30.3244C109.955 23.2522 108.396 21.5509 107.86 21.492C107.849 21.492 107.837 21.4896 107.825 21.4896Z" fill="#336498"></path><path d="M76.9755 85.2211V85.2836C76.9755 89.4197 80.3072 92.8043 84.4432 92.8043L84.4913 92.8199C88.2667 92.8199 91.4036 95.9244 91.4036 99.701V101.886C91.4036 105.505 94.2207 108.304 97.8398 108.304H100.336C103.325 108.304 106.071 110.708 106.259 113.714H124.807C127.288 113.714 129.433 111.542 129.355 109.062C129.318 107.909 128.839 106.807 128.078 106.046C127.317 105.285 126.2 104.697 124.989 104.697H122.026C119.914 104.697 118.072 102.967 118.126 100.854C118.151 99.8561 118.563 99.0962 119.222 98.4433C119.897 97.7628 120.832 97.4826 121.869 97.4826H137.29C139.77 97.4826 141.915 95.3124 141.837 92.8332C141.801 91.6801 141.321 90.5764 140.56 89.8153C139.799 89.0542 138.682 88.465 137.472 88.465H92.6949C90.5824 88.465 88.7404 86.7373 88.7945 84.6247C88.8198 83.6268 89.2322 82.8657 89.8911 82.2128C90.5656 81.5323 91.501 81.2509 92.5374 81.2509H104.395L108.346 72.2333H90.8049V72.0939C90.8049 75.1827 88.1381 77.6439 85.0492 77.6439H84.4252C80.2891 77.6439 76.9779 81.0862 76.9779 85.2223L76.9755 85.2211ZM100.005 100.961C100.005 99.8561 100.448 99.1383 101.173 98.4145C101.897 97.6967 102.896 97.4826 103.993 97.4826H108.125C110.327 97.4826 112.113 98.8894 112.113 101.093C112.113 103.297 110.327 104.697 108.125 104.697H103.993C101.791 104.697 100.005 103.158 100.005 100.961Z" fill="#E0EBFD"></path><path d="M124.988 114.917H66.1159C63.1533 114.917 60.7438 112.342 60.7438 109.177V109.046C60.7438 105.933 63.104 103.494 66.1159 103.494H70.484C71.8162 103.494 72.7504 102.483 72.7661 101.032C72.7492 99.6264 71.8366 98.685 70.484 98.685H36.1606C33.1415 98.685 30.6851 96.1108 30.6851 92.9474V92.8176C30.6851 89.7035 33.0898 87.2639 36.1606 87.2639H57.3796C58.8369 87.2639 60.1186 86.1181 60.1426 84.8027C60.1162 83.396 58.7022 82.4545 57.3796 82.4545H55.5076C52.4813 82.4545 49.9239 79.8274 49.9239 76.7181V76.5895C49.9239 73.5259 52.4284 71.0322 55.5076 71.0322H108.185C108.586 71.0322 108.962 71.233 109.185 71.5673C109.409 71.9015 109.45 72.3247 109.296 72.6963L108.75 74.0189C107.867 76.5294 106.955 79.1216 105.196 81.5431C105.066 82.0662 104.592 82.4545 104.028 82.4545H92.535C91.1596 82.4545 90.229 83.3815 90.2013 84.769C90.2302 86.1962 91.2233 87.2639 92.535 87.2639H137.468C138.955 87.2639 140.366 87.8507 141.437 88.9147C142.512 89.9824 143.105 91.3904 143.105 92.8789V92.9594C143.105 96.0639 140.523 98.6874 137.469 98.6874H121.868C120.532 98.6874 119.102 99.6132 119.06 100.998C119.102 102.314 120.421 103.497 121.868 103.497H124.988C128.016 103.497 130.48 106.015 130.48 109.109V109.189C130.48 112.348 128.016 114.919 124.988 114.919V114.917ZM66.1159 105.899C64.4242 105.899 63.1485 107.252 63.1485 109.046V109.177C63.1485 111.015 64.4795 112.512 66.1159 112.512H124.988C126.661 112.512 128.075 110.989 128.075 109.186V109.107C128.075 107.338 126.69 105.899 124.988 105.899H121.868C120.57 105.899 119.26 105.381 118.274 104.477C117.299 103.583 116.733 102.428 116.661 101.199C116.657 101.155 116.654 101.109 116.654 101.062V100.933C116.654 100.885 116.657 100.838 116.663 100.792C116.816 98.281 119.092 96.2803 121.868 96.2803H137.469C139.191 96.2803 140.7 94.7269 140.7 92.957V92.8765C140.7 91.1367 139.22 89.6674 137.469 89.6674H92.5363C89.956 89.6674 87.918 87.6114 87.8026 84.9434C87.799 84.9061 87.7978 84.8688 87.7978 84.8316V84.7041C87.7978 84.6656 87.8002 84.6272 87.8026 84.5899C87.9192 81.9844 89.9151 80.0498 92.5363 80.0498H103.308C104.777 77.9998 105.581 75.7791 106.405 73.4369H55.5064C53.7533 73.4369 52.3274 74.8509 52.3274 76.5895V76.7181C52.3274 78.4928 53.8135 80.0498 55.5064 80.0498H57.3784C60.1691 80.0498 62.4499 82.1107 62.5437 84.6777C62.5461 84.7065 62.5461 84.7342 62.5461 84.763V84.8424C62.5461 84.8712 62.5461 84.9001 62.5425 84.929C62.4475 87.5152 60.121 89.6686 57.3772 89.6686H36.1582C34.4364 89.6686 33.0874 91.0513 33.0874 92.8176V92.9474C33.0874 94.7545 34.4941 96.2803 36.1582 96.2803H70.4828C73.152 96.2803 75.1022 98.2257 75.1683 100.927C75.1683 100.949 75.1695 100.971 75.1695 100.992V101.069C75.1695 101.091 75.1695 101.114 75.1683 101.135C75.101 103.861 73.1099 105.899 70.4828 105.899H66.1147H66.1159Z" fill="#336498"></path><path d="M108.125 105.899H103.993C101.083 105.899 98.8029 103.681 98.8029 100.848C98.8029 99.226 99.5712 98.2389 100.323 97.4886C101.396 96.4234 102.78 96.2803 103.993 96.2803H108.125C111.132 96.2803 113.315 98.3038 113.315 101.093C113.315 102.487 112.754 103.741 111.733 104.627C110.788 105.448 109.506 105.899 108.125 105.899ZM103.993 98.685C102.955 98.685 102.382 98.8317 102.019 99.1924C101.399 99.8128 101.208 100.201 101.208 100.848C101.208 102.357 102.405 103.494 103.993 103.494H108.125C109.467 103.494 110.911 102.743 110.911 101.093C110.911 99.4437 109.511 98.685 108.125 98.685H103.993Z" fill="#336498"></path><path d="M101.182 85.4207C101.077 85.4207 100.97 85.4147 100.863 85.4027C100.202 85.3306 99.7263 84.7366 99.7984 84.0765C99.8706 83.4164 100.467 82.9379 101.125 83.0124C101.658 83.0701 103.55 81.7476 105.815 75.006C107.768 69.1938 109.352 61.3377 110.278 52.8852C111.204 44.4327 111.355 36.4203 110.707 30.3232C109.955 23.251 108.396 21.5496 107.86 21.4907C107.2 21.4186 106.724 20.8246 106.796 20.1645C106.868 19.5044 107.462 19.0271 108.122 19.1005C110.716 19.3842 112.344 22.972 113.099 30.0683C113.765 36.3313 113.613 44.5277 112.67 53.1461C111.726 61.7645 110.101 69.7998 108.095 75.7707C105.916 82.2561 103.651 85.4195 101.182 85.4195V85.4207Z" fill="#336498"></path><path d="M29.7966 82.1899C44.3907 84.4443 56.6197 83.6856 57.1127 80.4982C57.1404 80.3166 57.8281 75.6575 57.7812 75.4688C56.9913 72.3415 46.0415 68.2968 32.2782 66.171C18.5967 64.0585 6.99286 64.5923 5.18934 67.294C5.0691 67.4744 4.29479 72.1371 4.26353 72.3366C3.77057 75.5253 15.2025 79.9367 29.7966 82.1911V82.1899Z" fill="#F4F4F4"></path><path d="M49.3924 79.2815C49.4057 79.1973 49.562 78.1416 49.7195 77.0199C52.7374 77.0451 55.4222 76.9116 57.6598 76.6255C57.4722 78.0731 57.1319 80.372 57.1127 80.4983C56.6197 83.6869 44.3907 84.4444 29.7966 82.19C28.349 81.9663 26.9326 81.721 25.5559 81.4577C38.5653 83.0869 48.9403 82.2116 49.3924 79.2803V79.2815Z" fill="#C1BCB8"></path><path d="M45.1746 84.4889C40.5949 84.4889 35.218 84.0392 29.6439 83.1783C22.5164 82.0782 15.8998 80.4334 11.0123 78.5469C5.47429 76.4103 2.94335 74.3291 3.2752 72.1841C3.29203 72.0759 3.49282 70.8627 3.70804 69.6351C4.16494 67.0272 4.21784 66.949 4.35731 66.7386C6.80529 63.0691 20.6263 63.3588 32.4309 65.1828C39.122 66.2156 45.4463 67.751 50.2389 69.5052C55.4066 71.3965 58.2706 73.3215 58.7515 75.2248C58.8092 75.4556 58.8296 75.5338 58.4665 78.1261C58.2958 79.3452 58.1167 80.5596 58.1022 80.6522C57.7716 82.7972 54.7296 84.0176 48.8057 84.3843C47.6659 84.4552 46.4515 84.4901 45.1758 84.4901L45.1746 84.4889ZM29.9493 81.2017C36.9385 82.2814 43.5911 82.7022 48.6806 82.3872C54.5842 82.0217 56.0558 80.7893 56.1244 80.3456C56.2013 79.8454 56.7051 76.3815 56.7748 75.6047C56.4238 74.7282 54.3593 73.1435 49.5499 71.3833C44.8788 69.6736 38.6903 68.173 32.1243 67.1595C25.6004 66.1519 19.2772 65.7142 14.3212 65.9258C8.0413 66.1952 6.45901 67.3518 6.0947 67.7558C5.91074 68.5482 5.31438 72.0795 5.25186 72.4895C5.18332 72.9331 6.21373 74.5515 11.7325 76.6808C16.4902 78.5168 22.96 80.122 29.9493 81.2017Z" fill="#336498"></path><path d="M31.9211 75.464C49.467 78.1741 64.1717 77.2627 64.7632 73.4296C64.7969 73.2108 65.6241 67.609 65.5664 67.383C64.6166 63.6221 51.4521 58.7598 34.9041 56.2036C18.4548 53.663 4.5028 54.3051 2.33497 57.5538C2.19069 57.7702 1.25887 63.3768 1.2216 63.6173C0.63004 67.4503 14.3741 72.7551 31.9199 75.464H31.9211Z" fill="#F4F4F4"></path><path d="M2.08368 58.0276C1.92497 59.0255 2.73415 60.1761 4.38016 61.0442H4.38617C9.30738 59.9958 21.1866 59.3105 34.6829 61.3941C47.6466 63.3996 58.5219 66.9165 63.092 70.116C64.5913 69.5569 65.4726 68.8848 65.6085 67.9998C66.1988 64.1631 52.462 58.7814 34.915 56.0689C17.3727 53.3624 2.67523 54.1909 2.08488 58.0276H2.08368Z" fill="#C1BCB8"></path><path d="M4.3465 61.4699C8.91662 64.6681 19.8027 68.0804 32.7604 70.0847C46.2627 72.1684 58.083 72.113 63.0836 70.2218C58.5134 67.0235 47.6274 63.6112 34.6637 61.6057C21.1685 59.5233 9.34706 59.5786 4.3465 61.4699Z" fill="#A39D98"></path><path d="M63.092 70.116C61.7862 69.2022 59.9647 68.262 57.7283 67.3398C57.7331 67.3013 57.7391 67.258 57.7439 67.2207C57.8113 67.0801 57.8654 66.9358 57.8882 66.7831C58.4016 63.4514 48.1071 58.9558 33.8978 56.0533C34.2332 56.1026 34.5675 56.1507 34.9041 56.2036C51.4508 58.7586 64.6165 63.6221 65.5664 67.3831C65.5808 67.442 65.5375 67.8556 65.4642 68.4387C65.142 69.112 64.3328 69.6543 63.0932 70.1172L63.092 70.116Z" fill="#A39D98"></path><path d="M49.9395 75.4074C52.8696 75.0335 55.0326 74.3998 56.1653 73.5221C56.6678 73.1325 56.9684 72.6961 57.043 72.2115C57.0502 72.1635 57.0971 71.8472 57.1632 71.3927C59.622 71.1607 61.0841 70.711 61.0841 70.711C61.0841 70.711 62.2852 70.4886 63.0812 70.2217C64.3208 69.7588 65.1408 69.1107 65.463 68.4374C65.2502 70.1303 64.7873 73.266 64.762 73.4283C64.5192 75.0046 61.8872 76.0843 57.6586 76.6242C55.421 76.9103 52.7374 77.0438 49.7183 77.0185C44.5626 76.9752 38.4378 76.4691 31.9199 75.4627C30.4615 75.2379 29.0319 74.9926 27.6311 74.7341C36.5862 75.9028 44.5578 76.0939 49.9383 75.4074H49.9395Z" fill="#C1BCB8"></path><path d="M63.0824 70.2229C61.6383 70.7688 59.622 71.1608 57.1644 71.394C57.3123 70.3828 57.5588 68.6623 57.7127 67.4659C59.9514 68.3773 61.7754 69.3091 63.0824 70.2229Z" fill="#827B77"></path><path d="M4.34649 62.6734C3.86075 62.6734 3.40385 62.3776 3.2211 61.8955C2.98664 61.2739 3.29925 60.6006 3.92086 60.3649C6.41934 59.4198 10.4556 58.8872 15.5933 58.8872H15.6017C16.2618 58.8872 16.7992 59.4006 16.804 60.0619C16.8088 60.7256 16.2738 61.2582 15.6101 61.263C10.8235 61.2955 6.97482 61.768 4.77212 62.6013C4.63265 62.6542 4.48837 62.6746 4.34649 62.6746V62.6734Z" fill="#336498"></path><path d="M45.6315 64.9446C45.5389 64.9446 45.4451 64.9338 45.3513 64.9122C44.844 64.7907 44.3281 64.6717 43.8196 64.5575C40.8257 63.8841 37.6828 63.2914 34.4785 62.796C29.4311 62.0169 24.5736 61.5263 20.0419 61.3364C19.3782 61.3087 18.8636 60.7484 18.8913 60.0847C18.9189 59.421 19.4792 58.9076 20.1429 58.9341C24.7636 59.1277 29.71 59.6278 34.8452 60.4202C38.1036 60.924 41.3006 61.5275 44.3462 62.2129C44.8644 62.3295 45.3898 62.4509 45.9068 62.5736C46.5525 62.7275 46.9517 63.3756 46.7978 64.0224C46.6667 64.5743 46.1726 64.9458 45.6291 64.9458L45.6315 64.9446Z" fill="#336498"></path><path d="M49.0341 65.7959C48.9283 65.7959 48.8141 65.7839 48.6903 65.7574C48.6903 65.7574 48.6806 65.755 48.6746 65.7538C48.6542 65.749 48.6326 65.7442 48.6121 65.7382L48.6001 65.7346C48.5796 65.7286 48.5364 65.7226 48.5159 65.7166C48.5111 65.7153 48.4811 65.7141 48.4811 65.7129C47.3989 65.351 47.625 64.2461 47.6274 64.2353C47.6298 64.2244 47.9484 63.1291 49.1327 63.3912H49.1387L49.1592 63.3948C49.1796 63.3996 49.2025 63.4044 49.2229 63.4105C49.2433 63.4165 49.2746 63.4213 49.295 63.4273L49.3227 63.4309C50.2846 63.7158 50.2954 64.513 50.1932 64.9038C50.1908 64.9134 49.9371 65.7947 49.0353 65.7947L49.0341 65.7959Z" fill="#336498"></path><path d="M63.0812 71.4253C62.8431 71.4253 62.6026 71.3544 62.3922 71.2077C60.347 69.7769 56.9131 68.274 52.4608 66.8636C51.8272 66.6628 51.4773 65.9871 51.6781 65.3546C51.8789 64.7222 52.5546 64.3711 53.187 64.5719C57.869 66.0556 61.5289 67.6692 63.7713 69.2382C64.3148 69.6194 64.4482 70.3684 64.0671 70.9131C63.8326 71.2474 63.4599 71.4265 63.0812 71.4265V71.4253Z" fill="#336498"></path><path d="M51.2489 72.8476C45.7421 72.8476 39.2783 72.3078 32.5764 71.2726C24.0073 69.9488 16.0525 67.9709 10.1755 65.7033C3.51928 63.1351 0.476141 60.6318 0.874117 58.0539C1.27209 55.4761 4.92843 54.0081 12.0511 53.5668C18.3382 53.1772 26.519 53.6918 35.0881 55.0156C43.6572 56.3394 51.612 58.3173 57.489 60.5849C64.1464 63.1543 67.1896 65.6564 66.7916 68.2354C66.3936 70.8133 62.7373 72.2813 55.6146 72.7226C54.2451 72.808 52.7843 72.8488 51.2501 72.8488L51.2489 72.8476ZM16.4265 55.844C14.9392 55.844 13.5264 55.8849 12.2002 55.9667C5.10157 56.4067 3.33292 57.888 3.25116 58.4207C3.1682 58.9545 4.40782 60.8999 11.0436 63.4609C16.7631 65.6684 24.5423 67.5994 32.9455 68.8967C41.3487 70.194 49.3467 70.7002 55.4667 70.3215C62.5654 69.8814 64.334 68.4013 64.4158 67.8675C64.4987 67.3337 63.2591 65.3883 56.6234 62.8273C50.9038 60.6198 43.1246 58.6888 34.7214 57.3915C28.1385 56.3743 21.8034 55.844 16.4265 55.844Z" fill="#336498"></path><path d="M50.4096 78.2272C44.9028 78.2272 38.439 77.6874 31.7371 76.6522C23.168 75.3284 15.2133 73.3505 9.33621 71.0829C2.67881 68.5135 -0.363127 66.0114 0.0348496 63.4324C0.0552895 63.3013 0.296961 61.8429 0.555466 60.3688C1.10494 57.2331 1.16746 57.1393 1.33699 56.8856C2.64515 54.9246 6.64175 53.7871 13.2138 53.5058C19.3253 53.2437 27.0937 53.7799 35.0893 55.0147C43.1342 56.2568 50.7378 58.1024 56.4995 60.2113C62.7132 62.4849 66.1555 64.7994 66.7339 67.0875C66.8036 67.3652 66.8276 67.459 66.3912 70.5755C66.1856 72.046 65.9704 73.502 65.9535 73.6126C65.5556 76.1917 61.8992 77.6585 54.7765 78.0998C53.407 78.1852 51.9462 78.226 50.412 78.226L50.4096 78.2272ZM32.1039 74.2751C40.5071 75.5725 48.5063 76.0787 54.625 75.6999C61.7237 75.2599 63.4923 73.7798 63.5741 73.2459C63.6667 72.6447 64.2715 68.481 64.3568 67.5456C63.9348 66.4911 61.4531 64.5866 55.6711 62.4705C50.0549 60.4145 42.6136 58.6109 34.7202 57.3918C26.876 56.1798 19.2748 55.6532 13.3148 55.9093C5.76524 56.2327 3.86192 57.6238 3.42427 58.1096C3.20303 59.063 2.48644 63.3073 2.41069 63.8015C2.32773 64.3353 3.56735 66.2807 10.2031 68.8417C15.9227 71.0492 23.7018 72.9802 32.1051 74.2775L32.1039 74.2751Z" fill="#336498"></path><path d="M48.1191 94.4767H39.7027C39.039 94.4767 38.5004 93.9381 38.5004 93.2744C38.5004 92.6107 39.039 92.072 39.7027 92.072H48.1191C48.7828 92.072 49.3215 92.6107 49.3215 93.2744C49.3215 93.9381 48.7828 94.4767 48.1191 94.4767Z" fill="white"></path><path d="M36.1089 94.4395C35.7927 94.4395 35.4825 94.3108 35.2576 94.0872C35.034 93.8636 34.9065 93.5534 34.9065 93.2371C34.9065 92.9209 35.034 92.6107 35.2576 92.3871C35.4825 92.1634 35.7915 92.0348 36.1089 92.0348C36.4263 92.0348 36.7353 92.1634 36.959 92.3871C37.1826 92.6107 37.3112 92.9209 37.3112 93.2371C37.3112 93.5534 37.1826 93.8636 36.959 94.0872C36.7353 94.3108 36.4251 94.4395 36.1089 94.4395Z" fill="white"></path><path d="M126.234 70.8651C126.201 70.8651 126.167 70.8638 126.133 70.8602L118.345 70.2134C117.683 70.1581 117.19 69.5773 117.246 68.916C117.301 68.2548 117.882 67.7618 118.543 67.8171L126.332 68.464C126.993 68.5193 127.486 69.1 127.431 69.7613C127.379 70.3889 126.852 70.8638 126.233 70.8638L126.234 70.8651Z" fill="white"></path><path d="M114.849 69.92C114.533 69.92 114.223 69.7925 113.999 69.5689C113.776 69.344 113.647 69.035 113.647 68.7188C113.647 68.4026 113.776 68.0924 113.999 67.8676C114.223 67.6439 114.533 67.5165 114.849 67.5165C115.166 67.5165 115.476 67.6439 115.699 67.8676C115.924 68.0924 116.052 68.4014 116.052 68.7188C116.052 69.0362 115.924 69.344 115.699 69.5689C115.476 69.7925 115.167 69.92 114.849 69.92Z" fill="white"></path></g><defs><clipPath id="clip0_331_1667"><rect width="184" height="95.8331" fill="white" transform="translate(0 19.0835)"></rect></clipPath></defs></svg>